<svg width="440" height="280" viewBox="0 0 440 280" fill="none" xmlns="http://www.w3.org/2000/svg">
  <defs>
    <linearGradient id="bg" x1="36" y1="28" x2="404" y2="252" gradientUnits="userSpaceOnUse">
      <stop stop-color="#F8FAFC"/>
      <stop offset="1" stop-color="#ECFDF5"/>
    </linearGradient>
    <linearGradient id="accent" x1="76" y1="66" x2="364" y2="214" gradientUnits="userSpaceOnUse">
      <stop stop-color="#FEF3C7"/>
      <stop offset="1" stop-color="#DCFCE7"/>
    </linearGradient>
  </defs>

  <rect x="12" y="12" width="416" height="256" rx="28" fill="url(#bg)"/>
  <rect x="12.75" y="12.75" width="414.5" height="254.5" rx="27.25" stroke="#CBD5E1" stroke-opacity="0.7" stroke-width="1.5"/>

  <rect x="36" y="28" width="368" height="224" rx="22" fill="white"/>
  <rect x="36.75" y="28.75" width="366.5" height="222.5" rx="21.25" stroke="#E2E8F0" stroke-width="1.5"/>

  <rect x="58" y="48" width="324" height="64" rx="18" fill="url(#accent)"/>
  <text x="78" y="76" fill="#0F172A" font-family="'Avenir Next', 'Segoe UI', sans-serif" font-size="18" font-weight="700">Editable Readings</text>
  <text x="78" y="98" fill="#475569" font-family="'Avenir Next', 'Segoe UI', sans-serif" font-size="13">Yellow = tap to edit, green = saved change</text>

  <text x="92" y="182" fill="#0F172A" font-family="'Hiragino Sans', 'Yu Gothic', 'Noto Sans JP', sans-serif" font-size="44" font-weight="700">日本語</text>

  <g transform="translate(92 120)">
    <rect x="4" y="0" width="54" height="28" rx="14" fill="#FDE68A" stroke="#CA8A04" stroke-width="1.5"/>
    <text x="31" y="19" text-anchor="middle" fill="#854D0E" font-family="'Hiragino Sans', 'Yu Gothic', 'Noto Sans JP', sans-serif" font-size="15" font-weight="700">に</text>
  </g>

  <g transform="translate(164 108)">
    <rect x="0" y="0" width="92" height="36" rx="18" fill="#BBF7D0" stroke="#15803D" stroke-width="1.5"/>
    <circle cx="18" cy="18" r="5" fill="#15803D"/>
    <text x="54" y="24" text-anchor="middle" fill="#166534" font-family="'Hiragino Sans', 'Yu Gothic', 'Noto Sans JP', sans-serif" font-size="18" font-weight="700">ほん</text>
  </g>

  <g transform="translate(284 120)">
    <rect x="4" y="0" width="54" height="28" rx="14" fill="#FDE68A" stroke="#CA8A04" stroke-width="1.5"/>
    <text x="31" y="19" text-anchor="middle" fill="#854D0E" font-family="'Hiragino Sans', 'Yu Gothic', 'Noto Sans JP', sans-serif" font-size="15" font-weight="700">ご</text>
  </g>

  <rect x="76" y="208" width="122" height="20" rx="10" fill="#FEF3C7"/>
  <circle cx="92" cy="218" r="5" fill="#CA8A04"/>
  <text x="104" y="222" fill="#854D0E" font-family="'Avenir Next', 'Segoe UI', sans-serif" font-size="12" font-weight="700">Tap kana to edit</text>

  <rect x="234" y="208" width="124" height="20" rx="10" fill="#DCFCE7"/>
  <circle cx="250" cy="218" r="5" fill="#15803D"/>
  <text x="262" y="222" fill="#166534" font-family="'Avenir Next', 'Segoe UI', sans-serif" font-size="12" font-weight="700">Saved reading</text>
</svg>
